#!OML:ASF I:\Actors\actors\Patient Classification 2\Patient 1\Session 1\actor1.ASF
:FULLY-SPECIFIED
:DEGREES
847
root -0.64828 18.6896 4.99329 -0.757011 5.40722 -0.58792
lowerback 13.9097 0.331502 -0.312665
upperback -0.449471 0.381656 -0.103609
thorax -8.30573 0.1959 -0.0131289
lowerneck -12.2523 -0.67813 -2.40439
upperneck 17.6587 -0.805946 1.91854
head 7.46421 -0.363287 0.946087
rclavicle -1.08089e-015 2.88238e-015
rhumerus 22.9433 59.74 -85.4499
rradius 141.526
rwrist -1.87112
rhand -34.5625 -31.8086
rfingers 7.12502
rthumb -7.72253 -61.6476
lclavicle -1.08089e-015 2.88238e-015
lhumerus 30.3437 -55.9434 78.8803
lradius 142.955
lwrist 20.2861
lhand -25.7673 -55.969
lfingers 7.12502
lthumb 0.770459 -25.9906
rfemur 8.19306 -3.40333 14.0175
rtibia -1.11319e-014
rfoot -17.6491 -14.4189
rtoes -5.26478
lfemur -8.40782 -6.27472 -13.2128
ltibia 23.7851
lfoot -16.5931 4.90977
ltoes -56.5203
848
root -0.649347 18.6851 4.99785 -0.984323 5.2898 -0.572294
lowerback 13.7724 0.325601 -0.322577
upperback -0.51954 0.373145 -0.0967222
thorax -8.30353 0.192429 0.00211614
lowerneck -11.9302 -0.64725 -2.33789
upperneck 17.7814 -0.760878 1.79352
head 7.44539 -0.350466 0.899377
rclavicle 1.42628e-014 -9.14409e-015
rhumerus 22.2327 59.8547 -85.9908
rradius 141.428
rwrist -0.695717
rhand -34.792 -32.2795
rfingers 7.12502
rthumb -7.94398 -62.1102
lclavicle 1.42628e-014 -9.14409e-015
lhumerus 29.9828 -56.0388 79.0564
lradius 142.897
lwrist 19.5385
lhand -25.8364 -55.9264
lfingers 7.12502
lthumb 0.703778 -25.9478
rfemur 8.4401 -3.26281 13.9989
rtibia -1.27222e-014
rfoot -17.6561 -14.4215
rtoes -5.25249
lfemur -8.09585 -6.17002 -13.2461
ltibia 23.7514
lfoot -16.6248 4.85041
ltoes -56.4624
849
root -0.650582 18.6801 5.00376 -1.21676 5.14641 -0.61094
lowerback 13.5859 0.322239 -0.30848
upperback -0.568732 0.373257 -0.0769896
thorax -8.25066 0.192386 0.0160421
lowerneck -11.5336 -0.635448 -2.08215
upperneck 17.8441 -0.750417 1.51738
head 7.39325 -0.355437 0.768331
rclavicle -1.52629e-014 9.93923e-017
rhumerus 21.7048 59.9359 -86.3694
rradius 141.386
rwrist 0.510596
rhand -34.8557 -33.5469
rfingers 7.12502
rthumb -8.0055 -63.3753
lclavicle -1.52629e-014 9.93923e-017
lhumerus 29.6587 -56.2131 79.1301
lradius 142.899
lwrist 18.8374
lhand -26.0289 -55.6526
lfingers 7.12502
lthumb 0.517809 -25.6735
rfemur 8.68273 -3.09768 14.0392
rtibia 1.66979e-014
rfoot -17.6838 -14.392
rtoes -5.16889
lfemur -7.76559 -6.05981 -13.2229
ltibia 23.7084
lfoot -16.6533 4.8566
ltoes -56.4889
850
root -0.651942 18.675 5.01078 -1.44411 4.99326 -0.672089
lowerback 13.3566 0.311404 -0.297609
upperback -0.60499 0.363034 -0.0571769
thorax -8.15939 0.187471 0.0342238
lowerneck -11.4756 -0.663641 -2.23516
upperneck 18.2729 -0.805713 1.73054
head 7.52565 -0.373281 0.859555
rclavicle 5.2181e-016 -1.78906e-015
rhumerus 21.25 59.9644 -86.7062
rradius 141.418
rwrist 1.61081
rhand -34.6182 -34.9633
rfingers 7.12502
rthumb -7.77627 -64.8003
lclavicle 5.2181e-016 -1.78906e-015
lhumerus 29.2947 -56.32 79.2237
lradius 142.813
lwrist 18.0855
lhand -26.2045 -55.4089
lfingers 7.12502
lthumb 0.348247 -25.4294
rfemur 8.91639 -2.9248 14.1085
rtibia 1.43125e-014
rfoot -17.7033 -14.3647
rtoes -5.36841
lfemur -7.43173 -5.98208 -13.1727
ltibia 23.6633
lfoot -16.7293 4.87196
ltoes -56.4749
851
root -0.653875 18.6708 5.01915 -1.68305 4.86855 -0.691413
lowerback 13.1625 0.295901 -0.326323
upperback -0.661605 0.339766 -0.0416613
thorax -8.11021 0.177837 0.0724581
lowerneck -11.1208 -0.686522 -2.11256
upperneck 18.339 -0.839113 1.57887
head 7.48358 -0.396445 0.786932
rclavicle -1.67103e-015 -1.19271e-015
rhumerus 20.4111 59.9642 -87.3791
rradius 141.4
rwrist 2.70531
rhand -34.4135 -35.3192
rfingers 7.12502
rthumb -7.57871 -65.1634
lclavicle -1.67103e-015 -1.19271e-015
lhumerus 28.7139 -56.429 79.5352
lradius 142.709
lwrist 17.2679
lhand -26.0638 -55.2584
lfingers 7.12502
lthumb 0.484113 -25.2792
rfemur 9.17966 -2.77803 14.1363
rtibia -8.74653e-015
rfoot -17.7241 -14.3567
rtoes -5.567
lfemur -7.08263 -5.97518 -13.1691
ltibia 23.6255
lfoot -16.8255 4.88778
ltoes -56.438
852
root -0.655834 18.6668 5.02805 -1.93055 4.76893 -0.670598
lowerback 12.9455 0.281065 -0.39113
upperback -0.704122 0.313865 -0.00321204
thorax -8.03298 0.168942 0.156012
lowerneck -10.7669 -0.701196 -2.20786
upperneck 18.3927 -0.854058 1.60444
head 7.43882 -0.40932 0.810439
rclavicle 7.14382e-015 -4.87022e-015
rhumerus 19.3482 59.864 -88.1759
rradius 141.297
rwrist 3.6574
rhand -34.4104 -35.255
rfingers 7.12502
rthumb -7.57568 -65.0994
lclavicle 7.14382e-015 -4.87022e-015
lhumerus 28.0793 -56.4996 79.942
lradius 142.625
lwrist 16.4023
lhand -25.8367 -55.1211
lfingers 7.12502
lthumb 0.703432 -25.1425
rfemur 9.46757 -2.65357 14.1191
rtibia 1.59028e-014
rfoot -17.7703 -14.3291
rtoes -5.38829
lfemur -6.72056 -6.01616 -13.2134
ltibia 23.5861
lfoot -16.9351 4.92999
ltoes -56.415
853
root -0.65733 18.6617 5.03758 -2.18422 4.64056 -0.689998
lowerback 12.6933 0.266579 -0.415377
upperback -0.722392 0.297491 0.0657418
thorax -7.9094 0.163505 0.247162
lowerneck -10.5711 -0.726585 -2.47697
upperneck 18.6359 -0.88861 1.82413
head 7.48622 -0.425562 0.924957
rclavicle 6.05672e-015 -3.18055e-015
rhumerus 18.4226 59.6922 -88.7611
rradius 141.176
rwrist 4.30205
rhand -34.5484 -35.0775
rfingers 7.12502
rthumb -7.70888 -64.9169
lclavicle 6.05672e-015 -3.18055e-015
lhumerus 27.475 -56.4985 80.3266
lradius 142.525
lwrist 15.6322
lhand -25.7798 -54.977
lfingers 7.12502
lthumb 0.758451 -24.9986
rfemur 9.75637 -2.50191 14.1471
rtibia -2.22639e-014
rfoot -17.8239 -14.2885
rtoes -5.24213
lfemur -6.346 -6.02166 -13.2143
ltibia 23.5435
lfoot -17.0308 4.98145
ltoes -56.3649
854
root -0.659349 18.6559 5.04832 -2.44896 4.48534 -0.714295
lowerback 12.4834 0.259796 -0.418328
upperback -0.767426 0.292678 0.114136
thorax -7.83854 0.162371 0.301786
lowerneck -10.3256 -0.76964 -2.56435
upperneck 18.847 -0.941567 1.8326
head 7.5132 -0.457752 0.938442
rclavicle 1.47225e-014 4.96962e-015
rhumerus 17.382 59.556 -89.3457
rradius 141.101
rwrist 4.88305
rhand -34.698 -34.5446
rfingers 7.12502
rthumb -7.85328 -64.3787
lclavicle 1.47225e-014 4.96962e-015
lhumerus 26.7056 -56.5533 80.8204
lradius 142.447
lwrist 15.0659
lhand -25.5803 -54.9039
lfingers 7.12502
lthumb 0.951087 -24.9263
rfemur 10.0542 -2.32319 14.1845
rtibia 9.54166e-015
rfoot -17.8803 -14.2638
rtoes -5.35801
lfemur -5.95558 -5.96899 -13.2095
ltibia 23.5054
lfoot -17.1093 5.02931
ltoes -56.381
855
root -0.662134 18.6506 5.05944 -2.70328 4.37076 -0.720465
lowerback 12.3112 0.241995 -0.404965
upperback -0.861065 0.272758 0.129465
thorax -7.84084 0.152659 0.314662
lowerneck -9.99314 -0.845524 -2.6362
upperneck 19.0263 -1.05128 1.87189
head 7.51562 -0.513612 0.954226
rclavicle 1.53856e-014 5.86415e-015
rhumerus 16.003 59.3958 -90.1525
rradius 141.053
rwrist 5.5362
rhand -34.608 -33.7834
rfingers 7.12502
rthumb -7.76639 -63.6208
lclavicle 1.53856e-014 5.86415e-015
lhumerus 25.6527 -56.5066 81.5182
lradius 142.314
lwrist 14.2235
lhand -25.7704 -54.7568
lfingers 7.12502
lthumb 0.767491 -24.7785
rfemur 10.3532 -2.1853 14.2036
rtibia 3.18055e-015
rfoot -17.937 -14.2449
rtoes -5.6113
lfemur -5.58745 -5.92814 -13.2211
ltibia 23.4703
lfoot -17.207 5.05329
ltoes -56.4223
856
root -0.665438 18.6459 5.0711 -2.95123 4.26976 -0.745905
lowerback 12.2129 0.208507 -0.413046
upperback -1.02423 0.229541 0.159595
thorax -7.96001 0.133224 0.3594
lowerneck -9.66833 -0.916342 -2.7883
upperneck 19.3318 -1.18159 2.10963
head 7.56277 -0.567205 1.04724
rclavicle -3.41661e-015 3.67752e-015
rhumerus 14.3573 59.076 -91.1164
rradius 140.948
rwrist 6.10424
rhand -34.584 -32.6755
rfingers 7.12502
rthumb -7.74328 -62.5137
lclavicle -3.41661e-015 3.67752e-015
lhumerus 24.2538 -56.2798 82.4283
lradius 142.075
lwrist 13.056
lhand -26.0008 -54.7252
lfingers 7.12502
lthumb 0.544992 -24.7461
rfemur 10.6515 -2.06313 14.2451
rtibia 4.77083e-015
rfoot -18.0148 -14.1846
rtoes -5.60947
lfemur -5.22792 -5.9189 -13.2075
ltibia 23.4327
lfoot -17.3137 5.06702
ltoes -56.3902
857
root -0.669835 18.6414 5.08287 -3.21167 4.13381 -0.794152
lowerback 12.1384 0.196726 -0.414859
upperback -1.20565 0.216415 0.193431
thorax -8.11282 0.1284 0.398836
lowerneck -9.2902 -0.980782 -2.87866
upperneck 19.5911 -1.29707 2.25105
head 7.58432 -0.618536 1.10003
rclavicle 4.55768e-015 7.65321e-015
rhumerus 12.4587 58.4908 -92.0961
rradius 140.691
rwrist 7.02275
rhand -35.2823 -31.0877
rfingers 7.12502
rthumb -8.41719 -60.9
lclavicle 4.55768e-015 7.65321e-015
lhumerus 22.6981 -56.1818 83.315
lradius 141.858
lwrist 12.1394
lhand -25.4076 -55.1357
lfingers 7.12502
lthumb 1.1179 -25.1589
rfemur 10.9532 -1.90727 14.3164
rtibia 1.11319e-014
rfoot -18.0995 -14.0918
rtoes -5.45137
lfemur -4.84593 -5.93848 -13.171
ltibia 23.397
lfoot -17.4171 5.12889
ltoes -56.3817
